<svg width="155" height="17" viewBox="0 0 155 17" fill="none" xmlns="http://www.w3.org/2000/svg">
<path d="M0.528 6.368C0.528 5.25867 0.768 4.272 1.248 3.408C1.728 2.53333 2.39467 1.856 3.248 1.376C4.112 0.885333 5.088 0.639999 6.176 0.639999C7.50933 0.639999 8.65067 0.991999 9.6 1.696C10.5493 2.4 11.184 3.36 11.504 4.576H8.496C8.272 4.10667 7.952 3.74933 7.536 3.504C7.13067 3.25867 6.66667 3.136 6.144 3.136C5.30133 3.136 4.61867 3.42933 4.096 4.016C3.57333 4.60267 3.312 5.38667 3.312 6.368C3.312 7.34933 3.57333 8.13333 4.096 8.72C4.61867 9.30667 5.30133 9.6 6.144 9.6C6.66667 9.6 7.13067 9.47733 7.536 9.232C7.952 8.98667 8.272 8.62933 8.496 8.16H11.504C11.184 9.376 10.5493 10.336 9.6 11.04C8.65067 11.7333 7.50933 12.08 6.176 12.08C5.088 12.08 4.112 11.84 3.248 11.36C2.39467 10.8693 1.728 10.192 1.248 9.328C0.768 8.464 0.528 7.47733 0.528 6.368ZM17.2435 12.128C16.3688 12.128 15.5795 11.9413 14.8755 11.568C14.1822 11.1947 13.6328 10.6613 13.2275 9.968C12.8328 9.27467 12.6355 8.464 12.6355 7.536C12.6355 6.61867 12.8382 5.81333 13.2435 5.12C13.6488 4.416 14.2035 3.87733 14.9075 3.504C15.6115 3.13067 16.4008 2.944 17.2755 2.944C18.1502 2.944 18.9395 3.13067 19.6435 3.504C20.3475 3.87733 20.9022 4.416 21.3075 5.12C21.7128 5.81333 21.9155 6.61867 21.9155 7.536C21.9155 8.45333 21.7075 9.264 21.2915 9.968C20.8862 10.6613 20.3262 11.1947 19.6115 11.568C18.9075 11.9413 18.1182 12.128 17.2435 12.128ZM17.2435 9.76C17.7662 9.76 18.2088 9.568 18.5715 9.184C18.9448 8.8 19.1315 8.25067 19.1315 7.536C19.1315 6.82133 18.9502 6.272 18.5875 5.888C18.2355 5.504 17.7982 5.312 17.2755 5.312C16.7422 5.312 16.2995 5.504 15.9475 5.888C15.5955 6.26133 15.4195 6.81067 15.4195 7.536C15.4195 8.25067 15.5902 8.8 15.9315 9.184C16.2835 9.568 16.7208 9.76 17.2435 9.76ZM28.807 2.976C29.8523 2.976 30.6843 3.31733 31.303 4C31.9323 4.672 32.247 5.6 32.247 6.784V12H29.527V7.152C29.527 6.55467 29.3723 6.09067 29.063 5.76C28.7537 5.42933 28.3377 5.264 27.815 5.264C27.2923 5.264 26.8763 5.42933 26.567 5.76C26.2577 6.09067 26.103 6.55467 26.103 7.152V12H23.367V3.072H26.103V4.256C26.3803 3.86133 26.7537 3.552 27.223 3.328C27.6923 3.09333 28.2203 2.976 28.807 2.976ZM39.1243 9.68V12H37.7323C36.7403 12 35.9669 11.76 35.4123 11.28C34.8576 10.7893 34.5803 9.99467 34.5803 8.896V5.344H33.4923V3.072H34.5803V0.896H37.3163V3.072H39.1083V5.344H37.3163V8.928C37.3163 9.19467 37.3803 9.38667 37.5083 9.504C37.6363 9.62133 37.8496 9.68 38.1483 9.68H39.1243ZM40.1043 7.52C40.1043 6.60267 40.2749 5.79733 40.6163 5.104C40.9683 4.41067 41.4429 3.87733 42.0403 3.504C42.6376 3.13067 43.3043 2.944 44.0403 2.944C44.6696 2.944 45.2189 3.072 45.6883 3.328C46.1683 3.584 46.5363 3.92 46.7923 4.336V3.072H49.5283V12H46.7923V10.736C46.5256 11.152 46.1523 11.488 45.6723 11.744C45.2029 12 44.6536 12.128 44.0243 12.128C43.2989 12.128 42.6376 11.9413 42.0403 11.568C41.4429 11.184 40.9683 10.6453 40.6163 9.952C40.2749 9.248 40.1043 8.43733 40.1043 7.52ZM46.7923 7.536C46.7923 6.85333 46.6003 6.31467 46.2163 5.92C45.8429 5.52533 45.3843 5.328 44.8403 5.328C44.2963 5.328 43.8323 5.52533 43.4483 5.92C43.0749 6.304 42.8883 6.83733 42.8883 7.52C42.8883 8.20267 43.0749 8.74667 43.4483 9.152C43.8323 9.54667 44.2963 9.744 44.8403 9.744C45.3843 9.744 45.8429 9.54667 46.2163 9.152C46.6003 8.75733 46.7923 8.21867 46.7923 7.536ZM50.9636 7.536C50.9636 6.608 51.1503 5.79733 51.5236 5.104C51.9076 4.41067 52.4356 3.87733 53.1076 3.504C53.7903 3.13067 54.569 2.944 55.4436 2.944C56.5636 2.944 57.497 3.23733 58.2436 3.824C59.001 4.41067 59.497 5.23733 59.7316 6.304H56.8196C56.5743 5.62133 56.0996 5.28 55.3956 5.28C54.8943 5.28 54.4943 5.47733 54.1956 5.872C53.897 6.256 53.7476 6.81067 53.7476 7.536C53.7476 8.26133 53.897 8.82133 54.1956 9.216C54.4943 9.6 54.8943 9.792 55.3956 9.792C56.0996 9.792 56.5743 9.45067 56.8196 8.768H59.7316C59.497 9.81333 59.001 10.6347 58.2436 11.232C57.4863 11.8293 56.553 12.128 55.4436 12.128C54.569 12.128 53.7903 11.9413 53.1076 11.568C52.4356 11.1947 51.9076 10.6613 51.5236 9.968C51.1503 9.27467 50.9636 8.464 50.9636 7.536ZM66.1711 9.68V12H64.7791C63.7871 12 63.0138 11.76 62.4591 11.28C61.9045 10.7893 61.6271 9.99467 61.6271 8.896V5.344H60.5391V3.072H61.6271V0.896H64.3631V3.072H66.1551V5.344H64.3631V8.928C64.3631 9.19467 64.4271 9.38667 64.5551 9.504C64.6831 9.62133 64.8965 9.68 65.1951 9.68H66.1711ZM75.1498 12.128C74.2751 12.128 73.4858 11.9413 72.7818 11.568C72.0884 11.1947 71.5391 10.6613 71.1338 9.968C70.7391 9.27467 70.5418 8.464 70.5418 7.536C70.5418 6.61867 70.7444 5.81333 71.1497 5.12C71.5551 4.416 72.1098 3.87733 72.8138 3.504C73.5178 3.13067 74.3071 2.944 75.1818 2.944C76.0564 2.944 76.8458 3.13067 77.5498 3.504C78.2538 3.87733 78.8084 4.416 79.2138 5.12C79.6191 5.81333 79.8218 6.61867 79.8218 7.536C79.8218 8.45333 79.6138 9.264 79.1978 9.968C78.7924 10.6613 78.2324 11.1947 77.5178 11.568C76.8138 11.9413 76.0244 12.128 75.1498 12.128ZM75.1498 9.76C75.6724 9.76 76.1151 9.568 76.4778 9.184C76.8511 8.8 77.0378 8.25067 77.0378 7.536C77.0378 6.82133 76.8564 6.272 76.4938 5.888C76.1418 5.504 75.7044 5.312 75.1818 5.312C74.6484 5.312 74.2058 5.504 73.8538 5.888C73.5018 6.26133 73.3258 6.81067 73.3258 7.536C73.3258 8.25067 73.4964 8.8 73.8378 9.184C74.1898 9.568 74.6271 9.76 75.1498 9.76ZM90.0893 3.072V12H87.3533V10.784C87.0759 11.1787 86.6973 11.4987 86.2173 11.744C85.7479 11.9787 85.2253 12.096 84.6493 12.096C83.9666 12.096 83.3639 11.9467 82.8413 11.648C82.3186 11.3387 81.9133 10.896 81.6253 10.32C81.3373 9.744 81.1933 9.06667 81.1933 8.288V3.072H83.9133V7.92C83.9133 8.51733 84.0679 8.98133 84.3773 9.312C84.6866 9.64267 85.1026 9.808 85.6253 9.808C86.1586 9.808 86.5799 9.64267 86.8893 9.312C87.1986 8.98133 87.3533 8.51733 87.3533 7.92V3.072H90.0893ZM94.7905 4.56C95.1105 4.06933 95.5105 3.68533 95.9905 3.408C96.4705 3.12 97.0038 2.976 97.5905 2.976V5.872H96.8385C96.1558 5.872 95.6438 6.02133 95.3025 6.32C94.9612 6.608 94.7905 7.12 94.7905 7.856V12H92.0545V3.072H94.7905V4.56ZM110.705 7.392C110.705 7.648 110.689 7.91467 110.657 8.192H104.465C104.508 8.74667 104.684 9.17333 104.993 9.472C105.313 9.76 105.702 9.904 106.161 9.904C106.844 9.904 107.318 9.616 107.585 9.04H110.497C110.348 9.62667 110.076 10.1547 109.681 10.624C109.297 11.0933 108.812 11.4613 108.225 11.728C107.638 11.9947 106.982 12.128 106.257 12.128C105.382 12.128 104.604 11.9413 103.921 11.568C103.238 11.1947 102.705 10.6613 102.321 9.968C101.937 9.27467 101.745 8.464 101.745 7.536C101.745 6.608 101.932 5.79733 102.305 5.104C102.689 4.41067 103.222 3.87733 103.905 3.504C104.588 3.13067 105.372 2.944 106.257 2.944C107.121 2.944 107.889 3.12533 108.561 3.488C109.233 3.85067 109.756 4.368 110.129 5.04C110.513 5.712 110.705 6.496 110.705 7.392ZM107.905 6.672C107.905 6.20267 107.745 5.82933 107.425 5.552C107.105 5.27467 106.705 5.136 106.225 5.136C105.766 5.136 105.377 5.26933 105.057 5.536C104.748 5.80267 104.556 6.18133 104.481 6.672H107.905ZM117.428 12L115.716 9.52L114.276 12H111.316L114.26 7.44L111.236 3.072H114.308L116.02 5.536L117.46 3.072H120.42L117.428 7.568L120.5 12H117.428ZM124.291 4.336C124.557 3.92 124.925 3.584 125.395 3.328C125.864 3.072 126.413 2.944 127.043 2.944C127.779 2.944 128.445 3.13067 129.043 3.504C129.64 3.87733 130.109 4.41067 130.451 5.104C130.803 5.79733 130.979 6.60267 130.979 7.52C130.979 8.43733 130.803 9.248 130.451 9.952C130.109 10.6453 129.64 11.184 129.043 11.568C128.445 11.9413 127.779 12.128 127.043 12.128C126.424 12.128 125.875 12 125.395 11.744C124.925 11.488 124.557 11.1573 124.291 10.752V16.256H121.555V3.072H124.291V4.336ZM128.195 7.52C128.195 6.83733 128.003 6.304 127.619 5.92C127.245 5.52533 126.781 5.328 126.227 5.328C125.683 5.328 125.219 5.52533 124.835 5.92C124.461 6.31467 124.275 6.85333 124.275 7.536C124.275 8.21867 124.461 8.75733 124.835 9.152C125.219 9.54667 125.683 9.744 126.227 9.744C126.771 9.744 127.235 9.54667 127.619 9.152C128.003 8.74667 128.195 8.20267 128.195 7.52ZM140.83 7.392C140.83 7.648 140.814 7.91467 140.782 8.192H134.59C134.633 8.74667 134.809 9.17333 135.118 9.472C135.438 9.76 135.827 9.904 136.286 9.904C136.969 9.904 137.443 9.616 137.71 9.04H140.622C140.473 9.62667 140.201 10.1547 139.806 10.624C139.422 11.0933 138.937 11.4613 138.35 11.728C137.763 11.9947 137.107 12.128 136.382 12.128C135.507 12.128 134.729 11.9413 134.046 11.568C133.363 11.1947 132.83 10.6613 132.446 9.968C132.062 9.27467 131.87 8.464 131.87 7.536C131.87 6.608 132.057 5.79733 132.43 5.104C132.814 4.41067 133.347 3.87733 134.03 3.504C134.713 3.13067 135.497 2.944 136.382 2.944C137.246 2.944 138.014 3.12533 138.686 3.488C139.358 3.85067 139.881 4.368 140.254 5.04C140.638 5.712 140.83 6.496 140.83 7.392ZM138.03 6.672C138.03 6.20267 137.87 5.82933 137.55 5.552C137.23 5.27467 136.83 5.136 136.35 5.136C135.891 5.136 135.502 5.26933 135.182 5.536C134.873 5.80267 134.681 6.18133 134.606 6.672H138.03ZM145.009 4.56C145.329 4.06933 145.729 3.68533 146.209 3.408C146.689 3.12 147.223 2.976 147.809 2.976V5.872H147.057C146.375 5.872 145.863 6.02133 145.521 6.32C145.18 6.608 145.009 7.12 145.009 7.856V12H142.273V3.072H145.009V4.56ZM154.093 9.68V12H152.701C151.709 12 150.936 11.76 150.381 11.28C149.826 10.7893 149.549 9.99467 149.549 8.896V5.344H148.461V3.072H149.549V0.896H152.285V3.072H154.077V5.344H152.285V8.928C152.285 9.19467 152.349 9.38667 152.477 9.504C152.605 9.62133 152.818 9.68 153.117 9.68H154.093Z" fill="white"/>
</svg>
